<?xml version="1.0" encoding="UTF-8"?><svg id="Layer_2" xmlns="http://www.w3.org/2000/svg" viewBox="0 0 200 120"><defs><style>.cls-1{fill:#dba34b;}.cls-2{fill:#fff;}.cls-3{fill:#f2bf5e;}.cls-4{fill:#e8b156;}.cls-5{fill:#e9eaec;}.cls-6{fill:#e0563f;}.cls-7{fill:#212322;}.cls-8{fill:#231f20;opacity:.2;}.cls-9{fill:#ef6d53;}.cls-10{fill:#6bb8e9;}.cls-11{fill:#218fd7;}.cls-12{fill:#000000;}.cls-13{fill:#47605c;}.cls-14{fill:#344442;}.cls-15{fill:#55a797;}.cls-16{fill:#af7c38;}.cls-17{fill:#e6e7e8;}</style></defs><g id="Layer_1-2"><rect id="background" class="cls-12" width="200" height="120"/><path class="cls-8" d="M45.51,102.45c0,.67-5.84,1.22-13.04,1.22-7.2,0-13.04-.55-13.04-1.22,0-.67,5.84-1.22,13.04-1.22,7.2,0,13.04.54,13.04,1.22Z"/><path class="cls-15" d="M29.52,73.91c-.11,0-.23,0-.34-.01-.01,0-.02,0-.03,0-3.92-.19-7.97-1.94-11.19-5.15-3.22-3.22-4.97-7.29-5.15-11.22,0-.11-.01-.23-.01-.34.11,0,.22,0,.34.01,3.93.19,8,1.93,11.22,5.16,3.22,3.22,4.97,7.29,5.15,11.22,0,.02,0,.05,0,.07,0,.09,0,.18.01.27Z"/><path class="cls-13" d="M29.52,73.91c-.11,0-.23,0-.34-.01-5.46-5.46-10.92-10.92-16.37-16.37,0-.11-.01-.23-.01-.34.11,0,.22,0,.34.01,5.46,5.46,10.92,10.92,16.38,16.37,0,.02,0,.05,0,.07,0,.09,0,.18.01.27Z"/><path class="cls-15" d="M31.21,60.21c-.08,0-.16,0-.24,0-.03,0-.06,0-.09,0-2.71-.15-5.52-1.37-7.74-3.59-2.25-2.25-3.47-5.09-3.6-7.83,0-.08,0-.16,0-.24.08,0,.16,0,.24,0,2.74.13,5.58,1.35,7.83,3.6,2.25,2.25,3.46,5.09,3.6,7.83,0,0,0,0,0,.01,0,.07,0,.15,0,.23Z"/><path class="cls-13" d="M31.21,60.21c-.08,0-.16,0-.24,0-.03-.03-.06-.06-.09-.09-3.78-3.78-7.56-7.56-11.34-11.34,0-.08,0-.16,0-.24.08,0,.16,0,.24,0,3.81,3.81,7.62,7.62,11.43,11.43,0,0,0,0,0,.01,0,.07,0,.15,0,.23Z"/><path class="cls-15" d="M43.78,65.52c0,.06,0,.11,0,.17-.09,1.97-.97,4.01-2.59,5.63-1.6,1.6-3.62,2.47-5.56,2.58-.02,0-.04,0-.07,0-.06,0-.11,0-.17,0,0-.06,0-.11,0-.17,0,0,0,0,0,0,.09-1.97.97-4.01,2.59-5.63,1.62-1.62,3.66-2.49,5.63-2.59.06,0,.12,0,.17,0Z"/><path class="cls-13" d="M43.78,65.52c0,.06,0,.11,0,.17-2.74,2.74-5.48,5.48-8.22,8.22-.06,0-.11,0-.17,0,0-.06,0-.11,0-.17,0,0,0,0,0,0,2.74-2.74,5.48-5.48,8.21-8.21.06,0,.12,0,.17,0Z"/><path class="cls-15" d="M47.44,51.24c0,.09,0,.19-.01.28-.16,3.24-1.6,6.6-4.25,9.25-2.63,2.63-5.95,4.07-9.16,4.25-.03,0-.07,0-.1,0-.09,0-.19,0-.28.01,0-.04,0-.07,0-.11,0-.06,0-.11,0-.17.15-3.24,1.59-6.59,4.25-9.25,2.66-2.66,6.02-4.1,9.25-4.25.1,0,.19,0,.28-.01Z"/><path class="cls-13" d="M47.44,51.24c0,.09,0,.19-.01.28-4.5,4.5-9.01,9-13.51,13.51-.09,0-.19,0-.28.01,0-.04,0-.07,0-.11,0-.06,0-.11,0-.17,4.5-4.5,9-9,13.51-13.51.1,0,.19,0,.28-.01Z"/><path class="cls-13" d="M34.02,64.92c0,5.42,0,10.83,0,16.25-.13,0-.25,0-.38,0v-16.14s0-.07,0-.11h.38Z"/><path class="cls-13" d="M31.21,60.21v20.96c-.11,0-.22,0-.32,0,0-7.06,0-14.12,0-21.18.11,0,.21,0,.32,0,0,.07,0,.15,0,.23Z"/><path class="cls-13" d="M35.62,73.74c0,2.48,0,4.96,0,7.44-.08,0-.16,0-.24,0,0-2.42,0-4.84,0-7.26,0-.06,0-.11,0-.17,0,0,0,0,0,0,.08,0,.15,0,.23,0Z"/><path class="cls-13" d="M29.52,73.91v7.26c-.12,0-.25,0-.37,0v-7.53h.36c0,.09,0,.18.01.27Z"/><path class="cls-3" d="M38.9,101.25c-4.28,0-8.57,0-12.85,0-1.95-6.72-3.9-13.44-5.85-20.17h24.56c-1.95,6.72-3.9,13.44-5.85,20.17Z"/><path class="cls-9" d="M41.21,102.73c-5.83,0-11.66,0-17.49,0,0-.67,0-1.35,0-2.02,5.83,0,11.66,0,17.49,0,0,.67,0,1.35,0,2.02Z"/><path class="cls-2" d="M166.85,64.29c-.66.91-.79,2.11-.42,3.15.24.69.59,1.32.74,2.04.19.9-.39,1.79-.81,2.54-.1.17-.05.42.14.52.18.09.42.05.52-.14.29-.52.57-1.04.75-1.61.18-.57.22-1.17.08-1.76-.06-.25-.15-.5-.25-.74-.09-.23-.2-.45-.29-.68-.16-.42-.35-.91-.35-1.36,0-.42.13-.85.32-1.22.07-.13.14-.25.23-.37.12-.16.03-.43-.14-.52-.2-.1-.39-.04-.52.14Z"/><path class="cls-2" d="M169.29,64.29c-.66.91-.79,2.11-.42,3.15.24.69.59,1.32.74,2.04.19.9-.39,1.79-.81,2.54-.1.17-.05.42.14.52.18.09.42.05.52-.14.29-.52.57-1.04.75-1.61.18-.57.22-1.17.08-1.76-.06-.25-.15-.5-.25-.74-.09-.23-.2-.45-.29-.68-.16-.42-.35-.91-.35-1.36,0-.42.13-.85.32-1.22.07-.13.14-.25.23-.37.12-.16.03-.43-.14-.52-.2-.1-.39-.04-.52.14Z"/><path class="cls-2" d="M171.83,64.29c-.66.91-.79,2.11-.42,3.15.24.69.59,1.32.74,2.04.19.9-.39,1.79-.81,2.54-.1.17-.05.42.14.52.18.09.42.05.52-.14.29-.52.57-1.04.75-1.61.18-.57.22-1.17.08-1.76-.06-.25-.15-.5-.25-.74-.09-.23-.2-.45-.29-.68-.16-.42-.35-.91-.35-1.36,0-.42.13-.85.32-1.22.07-.13.14-.25.23-.37.12-.16.03-.43-.14-.52-.2-.1-.39-.04-.52.14Z"/><path class="cls-4" d="M176.56,80.87c0-.65,0-1.29,0-1.94,1.86,0,3.73,0,5.59,0,1.07,0,1.94.87,1.94,1.94,0,2.87,0,5.75,0,8.62,0,.54-.22,1.02-.57,1.37-.35.35-.84.57-1.37.57-1.86,0-3.73,0-5.59,0,0-.65,0-1.29,0-1.94h5.59c0-2.87,0-5.75,0-8.62-1.86,0-3.73,0-5.59,0Z"/><path class="cls-1" d="M169.57,73.81c-4.74,0-8.58.54-8.58,1.2v20.34c0,.66,3.84,1.2,8.58,1.2,4.74,0,8.58-.54,8.58-1.2v-20.34c0-.66-3.84-1.2-8.58-1.2Z"/><path class="cls-16" d="M176.78,75.66c-1.53.33-4.19.55-7.22.55-3.03,0-5.69-.22-7.21-.55,1.53-.33,4.19-.55,7.21-.55,3.03,0,5.69.22,7.22.55Z"/><path class="cls-3" d="M169.57,76.22c-4.74,0-8.58-.54-8.58-1.2v20.33c0,.66,3.84,1.2,8.58,1.2,4.74,0,8.58-.54,8.58-1.2v-20.33c0,.66-3.84,1.2-8.58,1.2Z"/><path class="cls-4" d="M178.14,95.35c0-6.78,0-13.56,0-20.33,0,.11-.11.22-.31.32-1.37,3.03-7.27,14.99-16.84,19.64v.38c0,.66,3.84,1.2,8.58,1.2,4.74,0,8.58-.54,8.58-1.2Z"/><path class="cls-8" d="M193.9,101.96c0,.89-10.6,1.62-23.67,1.62-13.07,0-23.67-.72-23.67-1.62,0-.89,10.6-1.62,23.67-1.62,13.07,0,23.67.72,23.67,1.62Z"/><path class="cls-9" d="M147.78,97.35c0,.96,0,1.92,0,2.89,0,1.14.92,2.06,2.06,2.06,14.28,0,28.56,0,42.83,0,0-.3,0-.6,0-.89-.17,0-.35,0-.52,0,0-1.74,0-3.47,0-5.21.17,0,.35,0,.52,0,0-.3,0-.6,0-.89-14.28,0-28.56,0-42.83,0-1.14,0-2.06.92-2.06,2.06Z"/><path class="cls-6" d="M172.16,97.35c0,.96,0,1.92,0,2.89,0,1.14.92,2.06,2.06,2.06,6.15,0,12.3,0,18.46,0,0-.3,0-.6,0-.89-.17,0-.35,0-.52,0,0-1.74,0-3.47,0-5.21.17,0,.35,0,.52,0,0-.3,0-.6,0-.89-6.15,0-12.3,0-18.46,0-1.14,0-2.06.92-2.06,2.06Z"/><path class="cls-2" d="M174.59,101.39c5.85,0,11.7,0,17.55,0,0-1.74,0-3.47,0-5.21-5.85,0-11.7,0-17.55,0-.85,0-1.54.69-1.54,1.54,0,.71,0,1.42,0,2.13,0,.85.69,1.54,1.54,1.54Z"/><path class="cls-5" d="M173.05,97.73c0,.09,0,.18,0,.27h19.09v-.35h-19.09s0,.06,0,.08Z"/><path class="cls-5" d="M173.05,99.39c0,.12,0,.23,0,.35h19.09v-.35c-6.36,0-12.73,0-19.09,0Z"/><path class="cls-5" d="M173.1,100.23c.03.12.08.24.14.35,6.3,0,12.61,0,18.91,0v-.35h-19.05Z"/><path class="cls-8" d="M146.63,102.22c0,.8-20.88,1.45-46.63,1.45-25.75,0-46.63-.65-46.63-1.45,0-.8,20.88-1.45,46.63-1.45,25.75,0,46.63.65,46.63,1.45Z"/><path class="cls-14" d="M110.9,102.05c-7.26,0-14.53,0-21.79,0,.89-5.66,1.78-11.31,2.67-16.97,5.48,0,10.97,0,16.45,0,.89,5.66,1.78,11.31,2.67,16.97Z"/><path class="cls-7" d="M91.1,89.37c4.23,4.23,8.45,8.45,12.68,12.68,2.37,0,4.74,0,7.12,0-.89-5.66-1.78-11.31-2.67-16.97-5.48,0-10.97,0-16.45,0-.22,1.43-.45,2.86-.67,4.29Z"/><path class="cls-7" d="M116.59,102.22c-11.06,0-22.13,0-33.19,0t0,0c0-1.09.88-1.97,1.97-1.97,9.75,0,19.5,0,29.25,0,1.09,0,1.97.88,1.97,1.97t0,0Z"/><path class="cls-7" d="M144.1,89.36c-29.4,0-58.8,0-88.2,0-1.4,0-2.53-1.13-2.53-2.53,0-18.91,0-37.82,0-56.73,0-1.4,1.13-2.53,2.53-2.53,29.4,0,58.8,0,88.2,0,1.4,0,2.53,1.13,2.53,2.53,0,18.91,0,37.82,0,56.73,0,1.4-1.13,2.53-2.53,2.53Z"/><path class="cls-17" d="M53.37,81.09c0,1.91,0,3.83,0,5.74,0,1.4,1.13,2.53,2.53,2.53,29.4,0,58.8,0,88.2,0,1.4,0,2.53-1.13,2.53-2.53,0-1.91,0-3.83,0-5.74-31.08,0-62.17,0-93.25,0Z"/><path class="cls-11" d="M144.33,78.68c-29.59,0-59.19,0-88.78,0,0-16.29,0-32.59,0-48.88,29.59,0,59.19,0,88.78,0,0,16.29,0,32.59,0,48.88Z"/><path class="cls-10" d="M121.05,73.94h-42.88c-.76,0-1.38-.62-1.38-1.38h0c0-.76.62-1.38,1.38-1.38,14.29,0,28.59,0,42.88,0,.76,0,1.38.62,1.38,1.38h0c0,.76-.62,1.38-1.38,1.38Z"/><path class="cls-2" d="M107.56,71.17c-9.8,0-19.59,0-29.39,0-.76,0-1.38.62-1.38,1.38h0c0,.76.62,1.38,1.38,1.38h29.39v-2.77Z"/><path class="cls-2" d="M104.83,53.94c-1.09-.1-2.19-.21-3.28-.31-.21-.92-.57-1.81-1.08-2.63.69-.83,1.38-1.66,2.08-2.5.25-.3.23-.74-.05-1.02-.39-.39-.78-.78-1.17-1.18-.28-.28-.72-.3-1.02-.05-.83.68-1.66,1.37-2.48,2.05-.84-.54-1.75-.92-2.69-1.13-.1-1.05-.19-2.1-.29-3.15-.04-.39-.36-.69-.75-.69-.55,0-1.11,0-1.66,0-.39,0-.72.3-.75.68-.1,1.04-.19,2.08-.29,3.12-.97.21-1.91.59-2.77,1.14-.79-.66-1.58-1.31-2.37-1.97-.3-.25-.74-.23-1.02.05-.39.39-.78.78-1.17,1.17-.28.28-.3.72-.05,1.02.66.79,1.31,1.58,1.97,2.37-.55.86-.92,1.8-1.13,2.76-1.01.09-2.03.18-3.04.27-.39.03-.69.36-.69.75,0,.55,0,1.11,0,1.66,0,.39.29.72.68.75,1.03.1,2.05.2,3.08.3.22.97.61,1.91,1.18,2.77-.66.79-1.32,1.58-1.99,2.37-.25.3-.23.74.04,1.02.39.39.78.79,1.17,1.18.27.28.71.3,1.02.05.81-.67,1.63-1.34,2.44-2.01.85.52,1.77.88,2.72,1.08.09,1.06.19,2.11.28,3.17.03.39.36.69.75.69.55,0,1.11,0,1.66,0,.39,0,.72-.29.75-.68.1-1.08.21-2.16.31-3.24.92-.22,1.8-.6,2.62-1.13.83.7,1.67,1.39,2.5,2.09.3.25.74.23,1.02-.04.39-.39.79-.78,1.18-1.17.28-.27.3-.71.05-1.02-.7-.85-1.4-1.7-2.11-2.55.5-.82.86-1.7,1.06-2.61,1.09-.1,2.18-.2,3.28-.3.39-.04.69-.36.69-.75,0-.55,0-1.11,0-1.66,0-.39-.3-.72-.68-.75ZM97.31,51.41c2.27,2.27,2.27,5.94,0,8.21-2.27,2.27-5.94,2.27-8.21,0-2.27-2.27-2.27-5.94,0-8.21,2.27-2.27,5.94-2.27,8.21,0Z"/><path class="cls-2" d="M118.41,48.22c-.76-.29-1.52-.58-2.28-.87.03-.69-.05-1.4-.25-2.09.66-.46,1.32-.91,1.97-1.37.24-.16.31-.48.17-.73-.2-.36-.4-.71-.6-1.07-.14-.25-.45-.35-.71-.24-.73.32-1.45.65-2.18.97-.49-.55-1.06-1-1.69-1.34.14-.77.28-1.53.41-2.3.05-.28-.12-.56-.4-.64-.39-.11-.79-.22-1.18-.33-.28-.08-.57.07-.67.34-.27.72-.55,1.44-.82,2.17-.73-.04-1.48.04-2.2.26-.43-.62-.87-1.25-1.3-1.87-.16-.24-.48-.31-.73-.17-.36.2-.71.4-1.07.61-.25.14-.35.45-.23.71.31.69.62,1.38.93,2.08-.56.51-1.01,1.1-1.35,1.75-.74-.14-1.48-.27-2.22-.41-.28-.05-.56.12-.64.4-.11.39-.22.79-.33,1.18-.08.28.07.57.34.67.71.27,1.42.55,2.13.82-.03.74.06,1.48.29,2.21-.63.43-1.26.87-1.88,1.3-.24.16-.31.48-.17.73.2.36.4.71.6,1.07.14.25.45.35.71.24.71-.32,1.43-.63,2.14-.95.5.54,1.09.98,1.73,1.31-.14.77-.28,1.54-.42,2.32-.05.28.12.56.4.64.39.11.79.22,1.18.33.28.08.57-.07.67-.34.29-.75.58-1.5.86-2.25.7.02,1.4-.07,2.09-.28.46.66.92,1.32,1.37,1.98.16.24.48.31.73.17.36-.2.71-.4,1.07-.6.25-.14.35-.45.24-.71-.33-.75-.67-1.49-1-2.24.52-.48.95-1.04,1.27-1.65.8.14,1.6.29,2.39.43.28.05.56-.12.64-.4.11-.39.22-.79.33-1.18.08-.28-.07-.57-.34-.67ZM113.55,44.93c1.17,2.06.44,4.68-1.62,5.85-2.06,1.17-4.68.44-5.85-1.62-1.17-2.06-.44-4.68,1.62-5.85,2.06-1.17,4.68-.44,5.85,1.62Z"/></g></svg>