<?xml version="1.0" encoding="UTF-8"?><svg id="Layer_2" xmlns="http://www.w3.org/2000/svg" viewBox="0 0 242.03 171.51"><defs><style>.cls-1{fill:#231f20;}.cls-2{fill:#f7941d;}.cls-3{fill:#b381b9;}.cls-4{fill:#87d5f3;}.cls-5{fill:#fff200;}</style></defs><g id="Layer_1-2"><polygon class="cls-3" points="240.76 156.88 226.78 157.38 212.61 157.27 198.44 157.25 184.27 157.49 170.1 156.36 155.93 157.57 141.75 157.76 127.58 156.76 113.41 157.7 99.23 157.42 85.06 156.73 70.89 157.52 56.71 156.88 42.54 157.42 28.36 156.63 14.67 156.57 13.82 142.9 13.51 128.72 14.47 114.55 13.79 100.38 13.59 86.21 14.19 72.04 13.67 57.87 14.61 43.69 14.41 29.52 14.42 15.34 14.65 1.63 28.34 1.27 42.51 1.65 56.68 1 70.85 1.51 85.02 1.27 99.2 1.23 113.37 .73 127.54 .57 141.72 1.01 155.89 .91 170.06 1.39 184.24 1.24 198.41 1.63 212.58 .5 226.77 .88 241.1 1.01 240.35 15.33 240.54 29.5 240.55 43.67 241.02 57.85 241 72.02 240.95 86.19 241.06 100.36 241.01 114.54 240.25 128.71 241.53 142.89 240.76 156.88"/><path class="cls-1" d="M141.76,158.26l-14.21-1-14.1.94-14.22-.28-14.19-.68-14.12.79-14.23-.64-14.13.54-14.23-.79-13.66-.05c-.26,0-.48-.21-.5-.47l-.85-13.68-.31-14.19.97-14.22-.69-14.11-.2-14.19.6-14.2-.52-14.13.94-14.23-.19-14.13v-14.19s.23-13.72.23-13.72c0-.27.22-.48.49-.49l13.69-.37,14.2.38,14.14-.65,14.21.51,14.14-.24,14.18-.04,14.16-.5,14.18-.16,14.19.43,14.16-.1,14.2.48,14.15-.15,14.2.39,14.12-1.13,14.23.38,14.32.13c.14,0,.27.06.36.16.09.1.14.23.14.37l-.75,14.32.2,14.14v14.18s.48,14.16.48,14.16l-.07,28.36.11,14.16-.05,14.18-.76,14.19,1.28,14.11-.77,14.06c-.01.26-.22.46-.48.47l-13.98.5-14.19-.11-14.17-.02-14.16.25-14.22-1.13-14.09,1.21-14.21.19ZM127.55,156.26l14.24,1,14.13-.19,14.14-1.21,14.25,1.13,14.12-.25,14.18.02,14.17.11,13.5-.48.74-13.53-1.28-14.11.76-14.24.05-14.15-.11-14.16.07-28.35-.47-14.15v-14.19s-.2-14.17-.2-14.17l.72-13.83-13.81-.13-14.19-.38-14.12,1.13-14.23-.39-14.15.15-14.2-.48-14.15.1-14.19-.43-14.15.16-14.16.5-14.19.04-14.16.24-14.2-.51-14.13.65-14.21-.38-13.19.35-.22,13.23v14.17s.19,14.16.19,14.16l-.94,14.21.52,14.12-.6,14.21.2,14.14.69,14.15-.97,14.23.31,14.13.82,13.19,13.22.05,14.21.79,14.12-.54,14.22.65,14.12-.79,14.23.68,14.16.28,14.13-.94ZM240.76,156.88h0,0Z"/><polygon class="cls-2" points="226.59 142.7 212.6 143.2 198.43 143.09 184.26 143.08 170.09 143.32 155.92 142.19 141.75 143.4 127.58 143.58 113.4 142.59 99.23 143.53 85.06 143.25 70.88 142.56 56.71 143.35 42.53 142.71 28.1 143.14 28.79 128.72 29.05 114.55 27.99 100.38 27.68 86.21 28.65 72.04 27.96 57.86 27.76 43.69 28.36 29.51 27.99 14.98 42.52 15.76 56.69 15.57 70.86 15.58 85.03 16 99.2 15.44 113.38 15.82 127.55 15.17 141.72 15.69 155.9 15.45 170.07 15.4 184.24 14.91 198.41 14.75 212.59 15.18 226.95 15.16 226.54 29.5 226.7 43.68 226.31 57.85 227.44 72.02 227.06 86.19 226.99 100.36 226.18 114.53 226.37 128.71 226.59 142.7"/><path class="cls-1" d="M127.58,144.08l-14.21-1-14.11.94-14.21-.28-14.19-.68-14.12.79-14.23-.64-14.39.44c-.14,0-.27-.05-.37-.15-.1-.1-.15-.24-.14-.37l.69-14.42.26-14.16-1.05-14.12-.31-14.2.97-14.22-.69-14.12-.2-14.19.6-14.21-.37-14.5c0-.14.05-.27.15-.37.1-.1.24-.15.38-.14l14.53.79,14.14-.19h14.18s14.19.43,14.19.43l14.14-.56,14.2.38,14.14-.65,14.21.51,14.15-.24,14.18-.04,14.16-.5,14.18-.16,14.2.43,14.34-.02h0c.13,0,.26.05.36.15s.15.23.14.36l-.41,14.35.15,14.15-.39,14.19,1.13,14.12-.38,14.22-.07,14.16-.81,14.2.41,28.13c0,.27-.21.5-.48.51l-13.98.5-14.19-.11-14.17-.02-14.16.24-14.22-1.13-14.09,1.21-14.21.19ZM113.37,142.09l14.24,1,14.13-.19,14.13-1.21,14.26,1.13,14.12-.25,14.18.02,14.17.11,13.47-.48-.4-27.68.81-14.21.07-14.15.38-14.18-1.13-14.12.39-14.22-.15-14.15.39-13.85-13.84.02-14.2-.43-14.15.16-14.16.5-14.19.04-14.17.24-14.2-.51-14.13.65-14.21-.38-14.14.56-14.21-.42h-14.16s-14.16.18-14.16.18l-14.02-.76.36,14-.6,14.21.2,14.14.69,14.16-.97,14.23.31,14.13,1.05,14.15-.26,14.22-.66,13.89,13.89-.42,14.22.65,14.12-.79,14.23.68,14.16.28,14.13-.94Z"/><polygon class="cls-5" points="212.41 128.53 198.43 129.03 184.26 128.92 170.09 128.9 155.92 129.15 141.75 128.02 127.57 129.22 113.4 129.41 99.23 128.41 85.05 129.35 70.88 129.07 56.7 128.39 42.2 129.04 42.71 114.55 42.17 100.38 42.96 86.21 43.22 72.03 42.17 57.87 41.85 43.69 42.73 29.72 56.69 29.12 70.86 28.92 85.04 29.52 99.21 29 113.38 29.94 127.55 29.74 141.72 29.75 155.89 30.17 170.07 29.61 184.24 29.99 198.42 29.35 212.35 29.76 212.49 43.68 212.53 57.85 213.03 72.02 213.19 86.19 212.75 100.36 212.85 114.54 212.41 128.53"/><path class="cls-1" d="M113.41,129.91l-14.21-1-14.11.94-14.21-.28-14.19-.68-14.46.66c-.14.01-.27-.05-.37-.14s-.15-.23-.15-.37l.51-14.49-.54-14.14.79-14.22.26-14.15-1.05-14.12-.31-14.21.88-14.01c.02-.26.22-.46.48-.47l13.96-.6,14.19-.2,14.2.6,14.13-.52,14.22.94,14.13-.19h14.18s14.18.43,14.18.43l14.14-.56,14.2.38,14.14-.65,13.97.41c.27,0,.48.23.49.5l.13,13.92.04,14.18.5,14.15.16,14.19-.43,14.19.1,14.16-.44,14.01c0,.26-.22.47-.48.48l-13.98.5-14.19-.11-14.17-.02-14.16.25-14.22-1.13-14.09,1.21-14.21.19ZM99.2,127.91l14.24,1,14.13-.19,14.14-1.21,14.25,1.13,14.12-.25,14.18.02,14.17.11,13.49-.48.42-13.52-.1-14.16.43-14.19-.16-14.15-.5-14.16-.04-14.19-.13-13.44-13.45-.4-14.14.65-14.21-.38-14.14.56-14.2-.42h-14.16s-14.17.18-14.17.18l-14.21-.94-14.12.52-14.21-.6-14.14.2-13.49.58-.85,13.52.31,14.14,1.05,14.14-.26,14.22-.79,14.19.54,14.13-.49,13.99,13.96-.63,14.23.68,14.16.28,14.13-.94ZM212.41,128.53h0,0Z"/><polygon class="cls-4" points="198.24 114.36 184.26 114.86 170.09 114.75 155.91 114.73 141.74 114.97 127.57 113.84 113.4 115.05 99.23 115.24 85.06 114.24 70.88 115.18 56.45 114.8 57.03 100.38 56.24 86.2 56.88 72.04 56.34 57.86 57.01 43.99 70.87 44.38 85.04 43.32 99.21 43.01 113.38 43.98 127.55 43.29 141.72 43.09 155.9 43.69 170.07 43.17 184.25 44.11 198.26 43.85 198.18 57.85 197.76 72.02 198.32 86.19 197.94 100.36 198.24 114.36"/><path class="cls-1" d="M99.23,115.74l-14.21-1-14.11.94-14.48-.38c-.13,0-.26-.06-.35-.16-.09-.1-.14-.23-.13-.36l.58-14.42-.79-14.13.64-14.22-.54-14.14.66-13.91c.01-.27.24-.46.51-.48l13.86.39,14.12-1.05,14.2-.31,14.22.97,14.11-.69,14.19-.2,14.2.6,14.13-.52,14.23.94,13.97-.26c.12,0,.26.05.36.14s.15.22.15.36l-.08,14-.42,14.18.56,14.13-.38,14.21.3,13.97c0,.27-.21.5-.48.51l-13.98.5-14.19-.11-14.17-.02-14.16.25-14.22-1.13-14.09,1.21-14.21.19ZM85.02,113.74l14.24,1,14.13-.19,14.13-1.21,14.26,1.13,14.12-.25,14.18.02,14.17.11,13.47-.48-.29-13.5.38-14.2-.56-14.13.42-14.21.08-13.48-13.5.25-14.22-.94-14.12.52-14.21-.6-14.14.2-14.16.69-14.23-.97-14.13.31-14.14,1.05-13.42-.37-.64,13.38.54,14.14-.64,14.21.79,14.12-.56,13.96,13.92.37,14.13-.94Z"/><path class="cls-1" d="M120.1,11.41c-.66,0-.55-.86-.72-1.74-.14-.73-.26-1.9-.4-2.18-.61,1.48-.77,4.05-1.34,4.05-.32,0-.4-.18-.47-.5-.21-1.05-.47-2.49-.67-3.45-.11.3-.65,2.33-.65,3.2-.02.38-.07.88-.51.88-.24,0-.42-.23-.42-.54,0-.55.49-2.11.71-3.21.11-.55.31-2.5.96-2.5.45,0,.51,1.09.61,1.66.1.62.33,1.95.5,2.59.13-.54.45-1.86.78-2.94.11-.38.27-1.23.72-1.23.24,0,.37.28.43.52.26,1.04.45,3.03.61,3.95.09.5.17.98.17,1.12,0,.22-.1.33-.29.33Z"/><path class="cls-1" d="M123.05,5.47c.17,0,.31.14.41.42.43,1.18,1.32,3.83,1.32,5.01,0,.26-.09.5-.35.58-.22,0-.37-.22-.48-.66-.08-.32-.15-.67-.22-1.03-.21.04-.43.07-.64.1-.3.05-.78.09-1.16.14l-.13.42c-.16.48-.31,1.29-.64,1.29-.25,0-.43-.21-.43-.5,0-.74,1.49-4.36,1.9-5.33.11-.28.2-.42.42-.42ZM122.24,9.09c.41-.05.88-.1,1.32-.15-.09-.46-.19-.9-.31-1.27-.06-.2-.15-.41-.22-.41-.05,0-.13.18-.23.38-.19.41-.38.94-.56,1.45Z"/><path class="cls-1" d="M127.12,9.21l1.34,1.54c.09.11.14.2.14.3,0,.24-.28.41-.43.41-.2,0-.39-.14-.5-.27-.72-.83-1.09-1.29-1.61-1.89-.01.18-.02.44-.02.66,0,.34.02.71.02,1.06,0,.32-.13.57-.37.57s-.41-.21-.43-.53c.02-.99.04-5.24.27-5.41.2-.15.93-.28,1.44-.28.87,0,1.86.48,1.86,1.62s-.76,1.95-1.7,2.22ZM126.79,6.33c-.33,0-.51.06-.69.15,0,.8-.02,1.39-.04,1.97.74,0,1.9-.37,1.9-1.33,0-.61-.6-.8-1.17-.8Z"/><path class="cls-1" d="M131.16,11.61c-1.46,0-2.02-.96-2.02-2.13,0-1.81,1.32-4.17,3.05-4.17.87,0,1.5.3,1.5,1.06,0,.21-.17.45-.37.45-.24,0-.33-.54-1.04-.54-1.11,0-2.32,1.69-2.32,3.08,0,.67.31,1.19,1.11,1.19.9,0,1.96-.66,1.96-1.36,0-.1-.09-.18-.17-.18-.54.02-1.26.43-1.66.43-.22,0-.42-.17-.42-.42,0-.82,1.84-1.11,2.69-1.11.27,0,.53.08.53.46,0,2.2-1.85,3.25-2.85,3.25Z"/><path class="cls-1" d="M135.43,8.7c0,.69,0,1.43,0,2.27,0,.31-.15.78-.55.78-.21,0-.28-.15-.28-.41.02-2.13.02-3.33.02-4.68,0-.63.02-1.15.43-1.15.34,0,.39.59.4.95-.02.72-.03,1.44-.03,2.24Z"/><path class="cls-1" d="M137.05,7.68c-.05.47-.1,1.44-.1,1.99,0,.42.04.81.04,1.29,0,.36-.09.75-.45.75-.27,0-.38-.18-.38-.77,0-.66.09-1.4.09-2.1,0-.98,0-1.37,0-1.77,0-.34-.07-.71-.07-1.07,0-.23.13-.5.35-.5.53,0,.9,1.27,1.12,1.74.38.86,1.21,2.57,1.52,2.56.13,0,.13-.32.13-.73,0-.94-.06-1.88-.06-2.86,0-.38.06-.77.38-.77s.4.78.4,1.51c0,.54-.04,1.14-.04,1.29,0,.8.05,1.5.05,2.28,0,.52-.12.82-.53.82-.69,0-2.23-2.88-2.46-3.66Z"/><path class="cls-1" d="M114.56,25.3c0-.32-.01-.65-.01-.98,0-1.2.05-2.43.05-3.82,0-.17.1-.34.21-.38.4-.15.96-.27,1.3-.27.78,0,1.86.38,1.86,1.38,0,.78-.65,1.3-.94,1.48.16-.04.31-.06.45-.06.33,0,.78.35.78.99,0,1.74-1.76,2.47-3,2.47-.51,0-.69-.47-.71-.82ZM115.95,20.79c-.26,0-.49.04-.63.1,0,.52,0,1.18,0,1.73,0,.12,0,.22.16.22.43,0,1.61-.69,1.61-1.41,0-.48-.61-.64-1.13-.64ZM116.74,23.43c-.49,0-1,.22-1.42.5,0,.7,0,.78,0,1.2.06.1.27.1.41.1.73,0,1.8-.81,1.8-1.32,0-.25-.32-.48-.79-.48Z"/><path class="cls-1" d="M120.76,26.01c-1.1,0-2.05-.87-2.05-2.33,0-1.65,1.14-3.72,2.73-3.72s2.13,1.2,2.13,2.6c0,1.9-1.24,3.45-2.81,3.45ZM121.38,20.94c-.99,0-1.84,1.23-1.84,2.67,0,.98.61,1.56,1.38,1.56,1.1,0,1.83-1.44,1.83-2.65,0-1.01-.55-1.58-1.37-1.58Z"/><path class="cls-1" d="M126,23.77l1.34,1.54c.09.11.14.2.14.3,0,.24-.28.41-.43.41-.2,0-.39-.14-.5-.27-.72-.83-1.09-1.3-1.61-1.9-.01.18-.02.44-.02.66,0,.34.02.71.02,1.06,0,.32-.13.57-.37.57s-.41-.21-.43-.53c.02-.99.04-5.24.27-5.41.2-.15.93-.28,1.44-.28.87,0,1.86.48,1.86,1.62s-.76,1.95-1.7,2.22ZM125.68,20.89c-.33,0-.51.06-.69.15,0,.8-.02,1.39-.04,1.97.74,0,1.9-.37,1.9-1.33,0-.61-.6-.8-1.17-.8Z"/><path class="cls-1" d="M128.82,26.25c-.27,0-.49-.35-.51-.65,0-.15-.01-.3-.01-.46,0-.79.05-1.54.05-2.41,0-.65-.1-1.41-.1-2.02,0-.58.52-.66.9-.66,1.7,0,3.38.66,3.38,3.02s-2.46,3.17-3.71,3.17ZM131.79,22.94c0-.94-1.09-1.79-2.33-1.79-.16,0-.4.04-.4.32,0,.94.07,1.88.08,3.74,1.07,0,2.65-.38,2.65-2.27Z"/><path class="cls-1" d="M136.13,21.08c-.29,0-.67-.06-1.07-.06-.35,0-.63,0-.95.08-.07.42-.09.87-.09,1.33,0,.19.08.2.2.2.45,0,.86-.2,1.63-.28.25,0,.46.2.46.48,0,.24-.1.5-.34.51-.67.06-1.74.31-2.01.31-.03.14-.04.34-.04,1.14,0,.38.22.44.54.44.47,0,1.36-.28,1.74-.28.27,0,.45.15.47.45,0,.3-.15.49-.41.54-.78.14-1.38.25-2.02.25-.74,0-1.06-.19-1.06-1.29,0-1.3.16-2.75.16-4.02,0-.37.15-.66.45-.74.81-.04,1.33-.14,2.17-.14.35,0,.82,0,.82.55,0,.43-.25.53-.65.53Z"/><path class="cls-1" d="M139.13,23.77l1.34,1.54c.09.11.14.2.14.3,0,.24-.28.41-.43.41-.2,0-.39-.14-.5-.27-.72-.83-1.09-1.3-1.61-1.9-.01.18-.02.44-.02.66,0,.34.02.71.02,1.06,0,.32-.13.57-.37.57s-.41-.21-.43-.53c.02-.99.04-5.24.27-5.41.2-.15.93-.28,1.44-.28.87,0,1.86.48,1.86,1.62s-.76,1.95-1.7,2.22ZM138.8,20.89c-.33,0-.51.06-.69.15,0,.8-.02,1.39-.04,1.97.74,0,1.9-.37,1.9-1.33,0-.61-.6-.8-1.17-.8Z"/><path class="cls-1" d="M114.11,38.37c-.06,0-.06.14-.06.24,0,.22,0,.59,0,.8,0,.35-.04.94-.49.94-.32,0-.32-.52-.32-1.2,0-1.26.05-2.43.05-3.73,0-.19,0-.38.05-.57.11-.56.69-.6,1.13-.6.79,0,2.57.46,2.57,1.56,0,2.07-1.98,2.57-2.93,2.57ZM114.01,37.32c.05.06.23.08.38.08.77,0,1.78-.12,1.78-1.33,0-.7-1.15-.92-1.74-.92-.08,0-.15,0-.23.06-.21.16-.18,1.62-.19,2.1Z"/><path class="cls-1" d="M119.14,34.21c.17,0,.31.14.41.42.43,1.18,1.32,3.83,1.32,5.01,0,.26-.09.5-.35.58-.22,0-.37-.22-.48-.66-.08-.32-.15-.67-.22-1.03-.21.04-.43.07-.64.1-.3.05-.78.09-1.16.14l-.13.42c-.16.48-.31,1.29-.64,1.29-.25,0-.43-.21-.43-.5,0-.74,1.49-4.36,1.9-5.33.11-.28.2-.42.42-.42ZM118.33,37.82c.41-.05.88-.1,1.32-.15-.09-.46-.19-.9-.31-1.27-.06-.2-.15-.41-.22-.41-.05,0-.13.18-.23.38-.19.41-.38.94-.56,1.45Z"/><path class="cls-1" d="M121.92,40.42c-.27,0-.49-.35-.51-.65,0-.15-.01-.3-.01-.46,0-.79.05-1.54.05-2.41,0-.65-.1-1.41-.1-2.02,0-.58.52-.66.9-.66,1.7,0,3.38.66,3.38,3.02s-2.46,3.17-3.71,3.17ZM124.89,37.11c0-.94-1.09-1.79-2.33-1.79-.16,0-.4.04-.4.32,0,.94.07,1.88.08,3.74,1.07,0,2.65-.38,2.65-2.27Z"/><path class="cls-1" d="M126.9,40.42c-.27,0-.49-.35-.51-.65,0-.15-.01-.3-.01-.46,0-.79.05-1.54.05-2.41,0-.65-.1-1.41-.1-2.02,0-.58.52-.66.9-.66,1.7,0,3.38.66,3.38,3.02s-2.46,3.17-3.71,3.17ZM129.87,37.11c0-.94-1.09-1.79-2.33-1.79-.16,0-.4.04-.4.32,0,.94.07,1.88.08,3.74,1.07,0,2.65-.38,2.65-2.27Z"/><path class="cls-1" d="M132.13,37.44c0,.69,0,1.43,0,2.27,0,.31-.15.78-.55.78-.21,0-.28-.15-.28-.41.02-2.13.02-3.33.02-4.68,0-.63.02-1.15.43-1.15.34,0,.39.59.4.95-.02.72-.03,1.44-.03,2.24Z"/><path class="cls-1" d="M133.75,36.41c-.05.47-.1,1.44-.1,1.99,0,.42.04.81.04,1.29,0,.36-.09.75-.45.75-.27,0-.38-.18-.38-.77,0-.66.09-1.4.09-2.1,0-.98,0-1.37,0-1.77,0-.34-.07-.71-.07-1.07,0-.23.13-.5.35-.5.53,0,.9,1.27,1.12,1.74.38.86,1.21,2.57,1.52,2.56.13,0,.13-.32.13-.73,0-.94-.06-1.88-.06-2.86,0-.38.06-.77.38-.77s.4.78.4,1.51c0,.54-.04,1.14-.04,1.29,0,.8.05,1.5.05,2.28,0,.52-.12.82-.53.82-.69,0-2.23-2.88-2.46-3.66Z"/><path class="cls-1" d="M139.19,40.34c-1.46,0-2.02-.96-2.02-2.13,0-1.81,1.32-4.17,3.05-4.17.87,0,1.5.3,1.5,1.06,0,.21-.17.45-.37.45-.24,0-.33-.54-1.04-.54-1.11,0-2.32,1.69-2.32,3.08,0,.67.31,1.19,1.11,1.19.9,0,1.96-.66,1.96-1.36,0-.1-.09-.18-.17-.18-.54.02-1.26.43-1.66.43-.22,0-.42-.17-.42-.42,0-.82,1.84-1.11,2.69-1.11.27,0,.53.08.53.46,0,2.2-1.85,3.25-2.85,3.25Z"/><path class="cls-1" d="M115.34,75.3c.61,0,.95.58.95,1.05,0,.21-.17.45-.37.45s-.18-.41-.76-.41c-.91,0-2.33,1.48-2.33,3.17,0,.57.47.88.92.88.93,0,1.54-.86,2.04-.86.17,0,.31.16.31.39,0,.78-1.44,1.47-2.17,1.47-.98,0-1.87-.5-1.87-1.81,0-2.05,1.66-4.33,3.28-4.33Z"/><path class="cls-1" d="M118.57,81.39c-1.1,0-2.05-.87-2.05-2.33,0-1.65,1.14-3.72,2.73-3.72s2.13,1.2,2.13,2.6c0,1.9-1.24,3.45-2.81,3.45ZM119.2,76.32c-.99,0-1.84,1.23-1.84,2.67,0,.98.61,1.56,1.38,1.56,1.1,0,1.83-1.44,1.83-2.65,0-1.01-.55-1.58-1.37-1.58Z"/><path class="cls-1" d="M122.78,77.62c-.05.47-.1,1.44-.1,1.99,0,.42.04.81.04,1.29,0,.36-.09.75-.45.75-.27,0-.38-.18-.38-.77,0-.66.09-1.4.09-2.1,0-.98,0-1.37,0-1.77,0-.34-.07-.71-.07-1.07,0-.23.13-.5.35-.5.53,0,.9,1.27,1.12,1.74.38.86,1.21,2.57,1.52,2.56.13,0,.13-.32.13-.73,0-.94-.06-1.88-.06-2.86,0-.38.06-.77.38-.77s.4.78.4,1.51c0,.54-.04,1.14-.04,1.29,0,.8.05,1.5.05,2.28,0,.52-.12.82-.53.82-.69,0-2.23-2.88-2.46-3.66Z"/><path class="cls-1" d="M128.59,76.65c.03.26.03.67.03,1.11,0,.53-.01,1.1-.02,1.46-.01.54-.02.94-.05,1.45-.03.35-.07.84-.46.84s-.4-.26-.4-.61c0-.24.03-.49.03-.67.01-.46.03-.87.03-1.33s-.05-1.54-.05-2.12c0-.1-.07-.11-.21-.11-.19,0-.7.02-.9.02-.22,0-.45-.16-.45-.45,0-.36.39-.5.67-.5.31,0,.81.04,1.41.04.56,0,.99-.14,1.43-.14.28,0,.61.02.61.42,0,.66-.83.51-1.16.56-.12,0-.43.02-.53.03Z"/><path class="cls-1" d="M133.68,76.46c-.29,0-.67-.06-1.07-.06-.35,0-.63,0-.95.08-.07.42-.09.87-.09,1.33,0,.19.08.2.2.2.45,0,.86-.2,1.63-.28.25,0,.46.2.46.48,0,.24-.1.5-.34.51-.67.06-1.74.31-2.01.31-.03.14-.04.34-.04,1.14,0,.38.22.44.54.44.47,0,1.36-.28,1.74-.28.27,0,.45.15.47.45,0,.3-.15.49-.41.54-.78.14-1.38.25-2.02.25-.74,0-1.06-.19-1.06-1.29,0-1.3.16-2.75.16-4.02,0-.37.15-.66.45-.74.81-.04,1.33-.14,2.17-.14.35,0,.82,0,.82.55,0,.43-.25.53-.65.53Z"/><path class="cls-1" d="M135.64,77.62c-.05.47-.1,1.44-.1,1.99,0,.42.04.81.04,1.29,0,.36-.09.75-.45.75-.27,0-.38-.18-.38-.77,0-.66.09-1.4.09-2.1,0-.98,0-1.37,0-1.77,0-.34-.07-.71-.07-1.07,0-.23.13-.5.35-.5.53,0,.9,1.27,1.12,1.74.38.86,1.21,2.57,1.52,2.56.13,0,.13-.32.13-.73,0-.94-.06-1.88-.06-2.86,0-.38.06-.77.38-.77s.4.78.4,1.51c0,.54-.04,1.14-.04,1.29,0,.8.05,1.5.05,2.28,0,.52-.12.82-.53.82-.69,0-2.23-2.88-2.46-3.66Z"/><path class="cls-1" d="M141.45,76.65c.03.26.03.67.03,1.11,0,.53-.01,1.1-.02,1.46-.01.54-.02.94-.05,1.45-.03.35-.07.84-.46.84s-.4-.26-.4-.61c0-.24.03-.49.03-.67.01-.46.03-.87.03-1.33s-.05-1.54-.05-2.12c0-.1-.07-.11-.21-.11-.19,0-.7.02-.9.02-.22,0-.45-.16-.45-.45,0-.36.39-.5.67-.5.31,0,.81.04,1.41.04.56,0,.99-.14,1.43-.14.28,0,.61.02.61.42,0,.66-.83.51-1.16.56-.12,0-.43.02-.53.03Z"/><path class="cls-1" d="M121.05,171.35c-.35,0-.7-1.93-.76-2.26-.07-.38-.11-1.07-.26-1.09-.18,0-.68,1.72-1.06,2.79-.11.33-.35.52-.51.52-.13,0-.24-.11-.33-.47-.23-.95-.4-1.72-.56-2.53-.15-.74-.31-2.13-.31-2.43s.21-.46.45-.46c.17,0,.35.1.39.31.17.77.18,2.77.53,3.42.14-.18.61-1.22.82-2.1.14-.6.3-1.58.77-1.58.29,0,.46.23.46.66.02.41.09.84.11,1.16.07.82.24,1.54.42,2.28.45-.86.5-1.94.76-2.89.03-.12.25-1.6.79-1.6.23,0,.42.19.42.46,0,.26-.32,1.18-.41,1.45-.28.88-.37,1.91-.73,2.83-.21.54-.45,1.52-1,1.52Z"/><path class="cls-1" d="M124.53,168.46c0,.69,0,1.43,0,2.27,0,.31-.15.78-.55.78-.21,0-.28-.15-.28-.41.02-2.13.02-3.33.02-4.68,0-.63.02-1.15.43-1.15.34,0,.39.59.4.95-.02.72-.03,1.44-.03,2.24Z"/><path class="cls-1" d="M125.9,171.45c-.27,0-.49-.35-.51-.65,0-.15-.01-.3-.01-.46,0-.79.05-1.54.05-2.41,0-.65-.1-1.41-.1-2.02,0-.58.52-.66.9-.66,1.7,0,3.38.66,3.38,3.02s-2.46,3.17-3.71,3.17ZM128.87,168.14c0-.94-1.09-1.79-2.33-1.79-.16,0-.4.04-.4.32,0,.94.07,1.88.08,3.74,1.07,0,2.65-.38,2.65-2.27Z"/><path class="cls-1" d="M132.13,166.47c.03.26.03.67.03,1.11,0,.53-.01,1.1-.02,1.46-.01.54-.02.94-.05,1.45-.03.35-.07.84-.46.84s-.4-.26-.4-.61c0-.24.03-.49.03-.67.01-.46.03-.87.03-1.34s-.05-1.54-.05-2.12c0-.1-.07-.11-.21-.11-.19,0-.7.02-.9.02-.22,0-.45-.16-.45-.45,0-.36.39-.5.67-.5.31,0,.81.04,1.41.04.56,0,.99-.14,1.43-.14.28,0,.61.02.61.42,0,.66-.83.51-1.16.56-.12,0-.43.02-.53.03Z"/><path class="cls-1" d="M137.69,168.39c0,.69,0,1.43,0,2.27,0,.31-.15.78-.55.78-.21,0-.28-.15-.28-.41l.02-2.56c-.58.18-1.17.21-1.75.47,0,.55,0,1.14,0,1.79,0,.31-.15.78-.55.78-.21,0-.28-.15-.28-.41.02-2.13.02-3.33.02-4.68,0-.63.02-1.15.43-1.15.34,0,.39.59.4.95-.02.57-.03,1.14-.03,1.74.33-.03,1.29-.35,1.75-.4v-1.22c0-.63.02-1.15.43-1.15.34,0,.39.59.4.95-.02.72-.03,1.44-.03,2.24Z"/><path class="cls-1" d="M4.24,87.09c.69,0,1.43,0,2.27,0,.31,0,.78.15.78.55,0,.21-.15.28-.41.28l-2.56-.02c.18.58.21,1.17.47,1.75.55,0,1.14,0,1.79,0,.31,0,.78.15.78.55,0,.21-.15.28-.41.28-2.13-.02-3.33-.02-4.68-.02-.63,0-1.15-.02-1.15-.43,0-.34.59-.39.95-.4.57.02,1.14.03,1.74.03-.03-.33-.35-1.29-.4-1.75h-1.22c-.63,0-1.15-.02-1.15-.43,0-.34.59-.39.95-.4.72.02,1.44.03,2.24.03Z"/><path class="cls-1" d="M2.13,83.45c0,.29-.06.67-.06,1.07,0,.35,0,.63.08.95.42.07.87.09,1.33.09.19,0,.2-.08.2-.2,0-.45-.2-.86-.28-1.63,0-.25.2-.46.48-.46.24,0,.5.1.51.34.06.67.31,1.74.31,2.01.14.03.34.04,1.14.04.38,0,.44-.22.44-.54,0-.47-.28-1.36-.28-1.74,0-.27.15-.45.45-.47.3,0,.49.15.54.41.14.78.25,1.38.25,2.02,0,.74-.19,1.06-1.29,1.06-1.3,0-2.75-.16-4.02-.16-.37,0-.66-.15-.74-.45-.04-.81-.14-1.33-.14-2.17,0-.35,0-.82.55-.82.43,0,.53.25.53.65Z"/><path class="cls-1" d="M4.31,81.49c.69,0,1.43,0,2.27,0,.31,0,.78.15.78.55,0,.21-.15.28-.41.28-2.13-.02-3.33-.02-4.68-.02-.63,0-1.15-.02-1.15-.43,0-.34.59-.39.95-.4.72.02,1.44.03,2.24.03Z"/><path class="cls-1" d="M7.22,78.9c0,1.46-.96,2.02-2.13,2.02-1.81,0-4.17-1.32-4.17-3.05,0-.87.3-1.5,1.06-1.5.21,0,.45.17.45.37,0,.24-.54.33-.54,1.04,0,1.11,1.69,2.32,3.08,2.32.67,0,1.19-.31,1.19-1.11,0-.9-.66-1.96-1.36-1.96-.1,0-.18.09-.18.17.02.54.43,1.26.43,1.66,0,.22-.17.42-.42.42-.82,0-1.11-1.84-1.11-2.69,0-.27.08-.53.46-.53,2.2,0,3.25,1.85,3.25,2.85Z"/><path class="cls-1" d="M4.24,72.08c.69,0,1.43,0,2.27,0,.31,0,.78.15.78.55,0,.21-.15.28-.41.28l-2.56-.02c.18.58.21,1.17.47,1.75.55,0,1.14,0,1.79,0,.31,0,.78.15.78.55,0,.21-.15.28-.41.28-2.13-.02-3.33-.02-4.68-.02-.63,0-1.15-.02-1.15-.43,0-.34.59-.39.95-.4.57.02,1.14.03,1.74.03-.03-.33-.35-1.29-.4-1.75h-1.22c-.63,0-1.15-.02-1.15-.43,0-.34.59-.39.95-.4.72.02,1.44.03,2.24.03Z"/><path class="cls-1" d="M2.32,69.19c.26-.03.67-.03,1.11-.03.53,0,1.1.01,1.46.02.54.01.94.02,1.45.05.35.03.84.07.84.46s-.26.4-.61.4c-.24,0-.49-.03-.67-.03-.46-.01-.87-.03-1.33-.03s-1.54.05-2.12.05c-.1,0-.11.07-.11.21,0,.19.02.7.02.9,0,.22-.16.45-.45.45-.36,0-.5-.39-.5-.67,0-.31.04-.81.04-1.41,0-.56-.14-.99-.14-1.43,0-.28.02-.61.42-.61.66,0,.51.83.56,1.16,0,.12.02.43.03.53Z"/><polygon class="cls-1" points="14.17 15.89 7.08 15.75 0 15.8 0 14.8 7.09 14.75 14.19 14.89 14.17 15.89"/><polygon class="cls-1" points="49.64 167.79 42.48 167 35.48 167.47 28.3 166.79 28.4 165.79 35.49 166.48 42.5 166.01 49.61 166.78 56.7 165.53 63.8 166.51 70.83 165.79 77.97 165.87 85.07 166.21 92.12 166.05 99.2 165.8 106.36 166.57 106.25 167.56 99.16 166.8 92.15 167.05 85.06 167.2 77.94 166.87 70.87 166.79 63.79 167.52 56.72 166.54 49.64 167.79"/><polygon class="cls-1" points="170.11 167.79 162.95 167 155.95 167.47 148.77 166.79 148.87 165.79 155.96 166.48 162.98 166.01 170.08 166.78 177.17 165.53 184.28 166.51 191.3 165.79 198.44 165.87 205.54 166.21 212.59 166.05 219.67 165.8 226.83 166.57 226.72 167.56 219.64 166.8 212.62 167.05 205.53 167.2 198.41 166.87 191.35 166.79 184.26 167.52 177.19 166.54 170.11 167.79"/><polygon class="cls-1" points="14.17 143.45 7.08 143.31 0 143.35 0 142.35 7.09 142.31 14.19 142.45 14.17 143.45"/><polygon class="cls-1" points="27.81 171.24 27.77 164.16 27.91 157.06 28.91 157.08 28.77 164.16 28.81 171.24 27.81 171.24"/><polygon class="cls-1" points="4.37 142.92 3.98 135.83 4.02 128.71 4.2 121.61 3.98 107.47 4.4 100.34 5.4 100.4 4.98 107.49 5.2 121.62 5.02 128.72 4.98 135.8 5.37 142.87 4.37 142.92"/><polygon class="cls-1" points="226.24 171.24 226.19 164.16 226.33 157.06 227.33 157.08 227.19 164.16 227.24 171.24 226.24 171.24"/><polygon class="cls-1" points="4.37 57.88 3.98 50.79 4.02 43.67 4.2 36.57 3.98 22.43 4.4 15.3 5.4 15.36 4.98 22.45 5.2 36.58 5.02 43.68 4.98 50.77 5.37 57.83 4.37 57.88"/></g></svg>